<svg id="Layer_1" data-name="Layer 1" xmlns="http://www.w3.org/2000/svg" viewBox="0 0 450.00057 450.00057"><path d="M249.83009,44.99963H249.83l.10031.00023c4.51512.01566,7.97557.86489,13.32268,5.29911,6.50909,5.398,14.105,14.66222,24.6181,27.48444,14.10511,17.20322,33.42267,40.76367,62.97934,70.35145,29.968,29.99955,53.84378,49.56166,71.2771,63.84533,12.89423,10.56467,22.21045,18.19777,27.63111,24.73345,4.42624,5.33688,5.25689,8.76256,5.24145,13.2171-.03488,10.03935-5.78821,15.638-32.58734,37.319-17.51688,14.17144-41.5072,33.5801-71.55032,63.60354-30.09189,30.07233-49.51377,54.0921-63.6951,71.63068-21.62168,26.74045-27.20679,32.48132-37.24768,32.51611l-.08689.00022c-9.97856,0-15.67744-5.80713-37.852-32.87156-14.28356-17.43344-33.84566-41.30944-63.84612-71.27823-29.58766-29.55667-53.14821-48.87423-70.35132-62.97921C64.9611,277.35818,55.69687,269.7623,50.299,263.25308c-4.43433-5.3471-5.28344-8.80745-5.29911-13.32255-.01578-4.51689.81923-7.99157,5.26889-13.40834,5.44411-6.62745,14.85844-14.44544,27.88834-25.26589,17.10155-14.20178,40.52289-33.65178,69.985-63.114S197.0542,95.259,211.256,78.15741C222.05453,65.154,229.85664,55.75886,236.4751,50.30752c5.41733-4.462,8.87311-5.30789,13.355-5.30789m-.00012-20c-33.106.00016-40.60853,33.77907-115.83,109.00051-75.35011,75.35024-109.11578,82.74922-109,116,.11656,33.488,34.41634,40.49466,109,114.99991,75.14618,75.06708,82.41668,110.00015,115.83281,110.00015L250,475c33.81322-.11743,40.57644-35.62488,115-109.99988,74.47046-74.4219,109.88269-81.22067,110-114.99991.11667-33.5581-34.809-40.72989-110-116C290.49475,59.41652,283.4881,25.11663,250,25l-.17-.0003Z" transform="translate(-24.99969 -24.99967)"/><polygon points="109 213 9 213 9 237 109 237 109 213 109 213"/><polygon points="440 213 340 213 340 237 440 237 440 213 440 213"/><path d="M345,154V345H154V154H345m20-20H134V365H365V134Z" transform="translate(-24.99969 -24.99967)"/><polygon points="236 110 212 110 212 165 236 165 236 110 236 110"/><polygon points="236 284 212 284 212 339 236 339 236 284 236 284"/><path d="M249,193.4315,305.56851,250,249,306.56851,192.4315,250,249,193.4315m0-28.28428L164.14722,250,249,334.85278,333.85278,250,249,165.14722Z" transform="translate(-24.99969 -24.99967)"/></svg>